{"title":"5.To.7.2014.720p.WEB-DL.XviD.AC3-RARBG","uid":12004727,"size":3483502400,"categoryP":"video","categoryS":"hd___movies","magnet":"?xt=urn:btih:8c6337f4c156993997027e5ddc731fa16b61d502&amp;dn=5.To.7.2014.720p.WEB-DL.XviD.AC3-RARBG&amp;tr=udp%3A%2F%2Ftracker.openbittorrent.com%3A80&amp;tr=udp%3A%2F%2Fopen.demonii.com%3A1337&amp;tr=udp%3A%2F%2Ftracker.coppersurfer.tk%3A6969&amp;tr=udp%3A%2F%2Fexodus.desync.com%3A6969","seeders":1,"leechers":0,"uploader":"makintos13","files":5,"time":1433811019,"description":"screens:\n &lt;a href=&quot;\nhttp://imgmak.com/3t&quot; rel=&quot;nofollow&quot; target=&quot;_NEW&quot;&gt;\nhttp://imgmak.com/3t&lt;/a&gt;\n &lt;a href=&quot;\nhttp://imgmak.com/32&quot; rel=&quot;nofollow&quot; target=&quot;_NEW&quot;&gt;\nhttp://imgmak.com/32&lt;/a&gt;\n &lt;a href=&quot;\nhttp://imgmak.com/3F&quot; rel=&quot;nofollow&quot; target=&quot;_NEW&quot;&gt;\nhttp://imgmak.com/3F&lt;/a&gt;\n\n\nVideo\nID                                       : 0\nFormat                                   : MPEG-4 Visual\nFormat profile                           : Simple@L5\nFormat settings, BVOP                    : No\nFormat settings, QPel                    : No\nFormat settings, GMC                     : No warppoints\nFormat settings, Matrix                  : Default (H.263)\nCodec ID                                 : XVID\nCodec ID/Hint                            : XviD\nDuration                                 : 1h 37mn\nBit rate                                 : 4 388 Kbps\nWidth                                    : 1 280 pixels\nHeight                                   : 536 pixels\nDisplay aspect ratio                     : 2.40:1\nFrame rate                               : 23.976 fps\nColor space                              : YUV\nChroma subsampling                       : 4:2:0\nBit depth                                : 8 bits\nScan type                                : Progressive\nCompression mode                         : Lossy\nBits/(Pixel*Frame)                       : 0.267\nStream size                              : 2.98 GiB (92%)\nWriting library                          : Lavc56.13.100\n\nAudio\nID                                       : 1\nFormat                                   : AC-3\nFormat/Info                              : Audio Coding 3\nMode extension                           : CM (complete main)\nFormat settings, Endianness              : Big\nCodec ID                                 : 2000\nDuration                                 : 1h 37mn\nBit rate mode                            : Constant\nBit rate                                 : 384 Kbps\nChannel(s)                               : 6 channels\nChannel positions                        : Front: L C R, Side: L R, LFE\nSampling rate                            : 48.0 KHz\nBit depth                                : 16 bits\nCompression mode                         : Lossy\nStream size                              : 267 MiB (8%)\nAlignment                                : Aligned on interleaves\nInterleave, duration                     : 42 ms (1.00 video frame)\nInterleave, preload duration             : 512 ms","torrent":{"xt":"urn:btih:8c6337f4c156993997027e5ddc731fa16b61d502","amp;dn":"5.To.7.2014.720p.WEB-DL.XviD.AC3-RARBG","amp;tr":["udp%3A%2F%2Ftracker.openbittorrent.com%3A80","udp%3A%2F%2Fopen.demonii.com%3A1337","udp%3A%2F%2Ftracker.coppersurfer.tk%3A6969","udp%3A%2F%2Fexodus.desync.com%3A6969"],"infoHash":"8c6337f4c156993997027e5ddc731fa16b61d502","infoHashBuffer":{"type":"Buffer","data":[140,99,55,244,193,86,153,57,151,2,126,93,220,115,31,161,107,97,213,2]},"announce":[],"urlList":[]}}